:SAMPLES-PER-SECOND 30
:FULLY-SPECIFIED
:DEGREES
455
root  -33.5298 34.8241 3.54439 3.84522 86.1896 -2.4466
RightUpLeg  -8.85967 -2.0747 -1.70478
RightLeg  9.4151 14.772 1.47101
RightFoot  3.80033 -0.0180783 1.04594
RightToes  -39.1214 -0.209764 -0.308953
Spine  -2.31041 -1.70226 1.33441
Spine1  -4.61971 -3.17658 3.20835
HEad  -58.5039 0.422903 12.66
LeftShoulder1  -1.94126e-019 -3.10601e-018 -2.51263e-017
LeftArm  -2.17312 5.4954 -75.8115
LeftForeArm  32.5358 -32.2341 -5.45035
LeftHand  -0.246437 -2.58545 3.80191
RightShoulder  -4.96962e-017 0 -2.36833e-017
RightArm  -34.0877 -21.3391 73.8006
RightForeArm  59.5277 10.0728 1.53571
RightHand  -0.30614 -0.813443 -7.7198
LeftUpLeg  -6.67204 10.0408 -1.14547
LeftLeg  9.47287 18.927 1.88288
LeftFoot  2.8628 -0.0238441 1.11579
LeftToes  -16.6204 1.89912e-006 4.45198e-008
456
root  -33.4901 34.7825 3.56418 2.18004 85.6415 -4.21688
RightUpLeg  -9.28181 -2.00151 -1.54316
RightLeg  10.0684 15.1986 1.68561
RightFoot  3.48093 -0.0152431 0.979119
RightToes  -39.2424 -0.21246 -0.310803
Spine  -2.21618 -1.73072 1.24808
Spine1  -4.49669 -3.34407 3.07234
HEad  -57.484 -0.644214 14.1737
LeftShoulder1  -1.94126e-019 -3.10601e-018 -2.51263e-017
LeftArm  -12.3632 9.87028 -78.5004
LeftForeArm  35.2425 -20.5305 -3.73551
LeftHand  -0.304091 -2.11891 4.89557
RightShoulder  -4.96962e-017 0 -2.36833e-017
RightArm  -36.0086 -21.8798 73.8538
RightForeArm  61.2888 8.96068 1.46982
RightHand  -0.300738 -1.02505 -7.92594
LeftUpLeg  -7.26066 10.1882 -0.998485
LeftLeg  10.7947 19.2921 2.35935
LeftFoot  2.1021 -0.0128042 0.859489
LeftToes  -16.5555 1.89912e-006 4.45198e-008
457
root  -33.4536 34.7416 3.59394 0.860582 85.1211 -5.66064
RightUpLeg  -9.65585 -1.77047 -1.36867
RightLeg  10.5783 15.4513 1.85052
RightFoot  3.24642 -0.0134652 0.92289
RightToes  -39.6948 -0.215423 -0.313392
Spine  -2.19692 -1.66328 1.12505
Spine1  -4.48881 -3.29635 2.85395
HEad  -56.2268 -1.90834 15.5836
LeftShoulder1  -1.94126e-019 -3.10601e-018 -2.51263e-017
LeftArm  -23.6609 14.0809 -80.0873
LeftForeArm  30.3945 -8.41062 -1.47642
LeftHand  -0.376959 0.565703 9.08727
RightShoulder  -4.96962e-017 0 -2.36833e-017
RightArm  -37.2636 -22.8499 73.8907
RightForeArm  62.055 8.3209 1.39787
RightHand  -0.291485 -1.20119 -7.98097
LeftUpLeg  -7.83111 10.4911 -0.832144
LeftLeg  12.0292 19.4437 2.79466
LeftFoot  1.44476 -0.00584547 0.625198
LeftToes  -16.5209 1.89912e-006 4.45198e-008
458
root  -33.3786 34.6561 3.60687 0.267424 84.5757 -6.34323
RightUpLeg  -10.3128 -1.75864 -1.27485
RightLeg  11.8955 15.9122 2.2713
RightFoot  2.56762 -0.00722598 0.765723
RightToes  -40.0838 -0.219153 -0.316789
Spine  -2.18069 -1.50271 0.953229
Spine1  -4.48102 -3.04619 2.5818
HEad  -54.8118 -3.21483 16.4182
LeftShoulder1  -1.94126e-019 -3.10601e-018 -2.51263e-017
LeftArm  -30.9011 20.3293 -80.7321
LeftForeArm  19.7431 -3.27131 -0.573329
LeftHand  -0.224771 3.64089 14.3281
RightShoulder  -4.96962e-017 0 -2.36833e-017
RightArm  -38.1859 -24.0084 73.8148
RightForeArm  62.2653 8.01738 1.35543
RightHand  -0.28721 -1.31431 -8.06686
LeftUpLeg  -8.59425 10.6978 -0.729969
LeftLeg  13.9086 19.6935 3.47721
LeftFoot  0.480603 -0.000543507 0.291209
LeftToes  -16.4985 1.89912e-006 4.45198e-008
459
root  -33.3223 34.5719 3.62895 -0.718847 84.2708 -7.42944
RightUpLeg  -10.9074 -1.85839 -1.13428
RightLeg  13.0689 16.2384 2.65186
RightFoot  1.99656 -0.00342984 0.633965
RightToes  -40.8043 -0.22494 -0.32038
Spine  -2.2789 -1.10537 0.822079
Spine1  -4.57487 -2.15178 2.31022
HEad  -53.2529 -4.56963 16.3955
LeftShoulder1  -1.94126e-019 -3.10601e-018 -2.51263e-017
LeftArm  -35.943 27.5364 -81.2509
LeftForeArm  9.94866 -3.21846 -0.572353
LeftHand  0.0177555 5.59325 16.7948
RightShoulder  -4.96962e-017 0 -2.36833e-017
RightArm  -38.6606 -25.567 73.6184
RightForeArm  61.7481 8.0756 1.36485
RightHand  -0.277321 -1.44345 -8.02237
LeftUpLeg  -9.37272 10.741 -0.582776
LeftLeg  15.6957 19.8091 4.12284
LeftFoot  -0.397913 -0.000590863 -0.00864648
LeftToes  -16.4711 1.89912e-006 4.45198e-008
460
root  -33.275 34.4938 3.65244 -1.97723 84.2658 -8.81104
RightUpLeg  -11.4051 -2.11173 -0.980511
RightLeg  14.0608 16.4099 2.96696
RightFoot  1.45871 -0.000990663 0.505662
RightToes  -41.4024 -0.229782 -0.322906
Spine  -2.46807 -0.570648 0.699503
Spine1  -4.75428 -0.85842 1.98622
HEad  -51.7474 -5.90477 16.1997
LeftShoulder1  -1.94126e-019 -3.10601e-018 -2.51263e-017
LeftArm  -38.4991 34.2872 -81.2804
LeftForeArm  5.18203 -3.62146 -0.639537
LeftHand  0.0174285 5.60732 16.0252
RightShoulder  -4.96962e-017 0 -2.36833e-017
RightArm  -38.9778 -27.4239 73.4836
RightForeArm  60.9889 8.45785 1.41647
RightHand  -0.278368 -1.38201 -7.93696
LeftUpLeg  -10.1214 10.6729 -0.42728
LeftLeg  17.2539 19.7483 4.66095
LeftFoot  -1.17182 -0.00436301 -0.26509
LeftToes  -16.4205 1.89912e-006 4.45198e-008
461
root  -33.2315 34.4285 3.66226 -3.60208 84.6755 -10.4944
RightUpLeg  -11.7017 -2.73879 -0.88114
RightLeg  14.8721 16.5627 3.23262
RightFoot  0.945691 0.00023827 0.381024
RightToes  -41.6697 -0.233087 -0.324028
Spine  -2.65878 -0.011099 0.580369
Spine1  -4.89399 0.557058 1.63078
HEad  -50.6105 -7.34861 16.0297
LeftShoulder1  -1.94126e-019 -3.10601e-018 -2.51263e-017
LeftArm  -38.4703 39.9338 -80.7472
LeftForeArm  6.93584 -3.74907 -0.658344
LeftHand  -0.0892033 4.74493 13.7774
RightShoulder  -4.96962e-017 0 -2.36833e-017
RightArm  -39.42 -29.2368 73.4215
RightForeArm  60.4374 8.88814 1.46393
RightHand  -0.284262 -1.2859 -7.78893
LeftUpLeg  -10.7139 10.4563 -0.309517
LeftLeg  18.4662 19.4749 5.02594
LeftFoot  -1.76437 -0.00933279 -0.444536
LeftToes  -16.4476 1.89912e-006 4.45198e-008
462
root  -33.1948 34.3879 3.67266 -6.32668 85.3764 -13.2155
RightUpLeg  -11.7551 -3.15509 -0.767675
RightLeg  15.3363 16.2528 3.30849
RightFoot  0.682692 0.000423966 0.318454
RightToes  -41.93 -0.234081 -0.324084
Spine  -2.84042 0.535047 0.45727
Spine1  -5.04386 1.92129 1.26668
HEad  -49.4936 -9.19016 15.9973
LeftShoulder1  -1.94126e-019 -3.10601e-018 -2.51263e-017
LeftArm  -36.0191 44.3582 -79.5999
LeftForeArm  13.187 -3.66621 -0.643605
LeftHand  -0.173189 3.87366 12.4217
RightShoulder  -4.96962e-017 0 -2.36833e-017
RightArm  -40.3929 -30.9606 73.5449
RightForeArm  60.0075 9.23773 1.49416
RightHand  -0.286769 -1.24314 -7.83295
LeftUpLeg  -11.0982 10.2153 -0.158731
LeftLeg  19.2316 18.9579 5.16283
LeftFoot  -2.15124 -0.0131861 -0.540748
LeftToes  -16.3991 1.89912e-006 4.45198e-008
463
root  -33.1561 34.3664 3.66887 -11.0068 86.4021 -17.9045
RightUpLeg  -11.7019 -3.61167 -0.686585
RightLeg  15.6516 15.6579 3.27895
RightFoot  0.380657 0.0003254 0.239636
RightToes  -41.3898 -0.229679 -0.322838
Spine  -2.94941 0.986996 0.343679
Spine1  -5.10123 3.04025 0.937653
HEad  -48.5425 -11.1975 16.0205
LeftShoulder1  -1.94126e-019 -3.10601e-018 -2.51263e-017
LeftArm  -31.2864 47.465 -78.0992
LeftForeArm  18.9939 -3.51889 -0.617902
LeftHand  -0.202072 3.60864 12.5203
RightShoulder  -4.96962e-017 0 -2.36833e-017
RightArm  -41.8131 -32.1801 73.7246
RightForeArm  59.8655 9.27691 1.49703
RightHand  -0.287256 -1.21528 -7.88781
LeftUpLeg  -11.3769 9.88768 -0.0494777
LeftLeg  19.6215 18.2351 5.10433
LeftFoot  -2.36981 -0.0150899 -0.568004
LeftToes  -16.2817 1.89912e-006 4.45198e-008
464
root  -33.1333 34.3603 3.64763 -24.1526 87.9648 -30.9901
RightUpLeg  -11.4727 -4.52738 -0.69956
RightLeg  15.8402 14.946 3.18408
RightFoot  0.14294 -5.52154e-005 0.180293
RightToes  -40.6757 -0.223903 -0.318907
Spine  -2.99884 1.16008 0.208212
Spine1  -5.11924 3.52345 0.608845
HEad  -47.554 -13.0925 15.8942
LeftShoulder1  -1.94126e-019 -3.10601e-018 -2.51263e-017
LeftArm  -27.2569 49.5468 -76.3379
LeftForeArm  22.5875 -3.28964 -0.577479
LeftHand  -0.206099 3.58834 12.6487
RightShoulder  -4.96962e-017 0 -2.36833e-017
RightArm  -42.9216 -32.9165 73.962
RightForeArm  59.9495 9.17168 1.48899
RightHand  -0.285471 -1.22159 -7.84895
LeftUpLeg  -11.6314 9.22977 -0.0373372
LeftLeg  19.8674 17.2827 4.92573
LeftFoot  -2.39584 -0.0159495 -0.520913
LeftToes  -16.4452 1.89912e-006 4.45198e-008
465
root  -33.1078 34.3574 3.61483 -87.1223 89.0181 -93.91
RightUpLeg  -11.1973 -5.43753 -0.730039
RightLeg  15.9703 14.1004 3.04079
RightFoot  -0.127627 -0.000795751 0.11738
RightToes  -39.6105 -0.215379 -0.312911
Spine  -2.99214 1.2838 0.117948
Spine1  -5.06699 3.84257 0.40458
HEad  -46.6685 -14.9493 15.3909
LeftShoulder1  -1.94126e-019 -3.10601e-018 -2.51263e-017
LeftArm  -24.9182 50.3842 -74.5527
LeftForeArm  23.243 -2.82891 -0.495106
LeftHand  -0.23859 3.22477 12.3244
RightShoulder  -4.96962e-017 0 -2.36833e-017
RightArm  -43.4694 -33.2877 74.0685
RightForeArm  60.219 9.06323 1.47977
RightHand  -0.289 -1.22321 -7.95092
LeftUpLeg  -11.8293 8.47877 -0.0549326
LeftLeg  19.9486 16.3098 4.68181
LeftFoot  -2.45146 -0.0138442 -0.485488
LeftToes  -16.1912 1.89912e-006 4.45198e-008
